<svg xmlns="http://www.w3.org/2000/svg" width="1280" height="860" viewBox="0 0 1280 860" role="img" aria-labelledby="title desc">
  <title id="title">Kaoooai product workflow mock screen</title>
  <desc id="desc">Enterprise AI agent workflow dashboard showing plan, build, test and review stages, styled like VS Code with AI chat panel.</desc>
  <defs>
    <linearGradient id="accent" x1="0" y1="0" x2="1" y2="1">
      <stop offset="0" stop-color="#007acc"/>
      <stop offset="1" stop-color="#0098ff"/>
    </linearGradient>
    <linearGradient id="accentGreen" x1="0" y1="0" x2="1" y2="1">
      <stop offset="0" stop-color="#0eaa6b"/>
      <stop offset="1" stop-color="#14c97e"/>
    </linearGradient>
    <linearGradient id="chatGradient" x1="0" y1="0" x2="1" y2="1">
      <stop offset="0" stop-color="#8b5cf6"/>
      <stop offset="1" stop-color="#a78bfa"/>
    </linearGradient>
    <filter id="windowShadow" x="-2%" y="-2%" width="104%" height="106%">
      <feDropShadow dx="0" dy="8" stdDeviation="32" flood-color="#000" flood-opacity=".45"/>
    </filter>
  </defs>

  <!-- Window background -->
  <rect width="1280" height="860" rx="10" fill="#0d1117"/>
  <rect x="0" y="0" width="1280" height="860" rx="10" fill="none" stroke="#1a2130" stroke-width="1"/>

  <!-- ===== TITLE BAR ===== -->
  <rect x="0" y="0" width="1280" height="38" rx="10" fill="#202530"/>
  <rect x="0" y="20" width="1280" height="18" fill="#202530"/>
  <!-- macOS traffic lights -->
  <circle cx="24" cy="19" r="6" fill="#ff5f57"/>
  <circle cx="44" cy="19" r="6" fill="#febc2e"/>
  <circle cx="64" cy="19" r="6" fill="#28c840"/>
  <text x="560" y="23" font-family="-apple-system, BlinkMacSystemFont, 'Segoe UI', sans-serif" font-size="13" font-weight="500" fill="#9aa0a6" text-anchor="middle">Kaoooai Agent Console</text>

  <!-- ===== ACTIVITY BAR ===== -->
  <rect x="0" y="38" width="48" height="772" fill="#282c34"/>
  <rect x="0" y="38" width="48" height="772" fill="none" stroke="#181a1f" stroke-width="1"/>

  <!-- Activity bar icons -->
  <!-- 1. Explorer (active) -->
  <rect x="8" y="52" width="32" height="32" rx="4" fill="#3a3d41"/>
  <path d="M16 62h16M16 66h12M16 70h8M16 74h14" stroke="#9aa0a6" stroke-width="1.5" stroke-linecap="round"/>

  <!-- 2. Search -->
  <rect x="8" y="96" width="32" height="32" rx="4" fill="transparent"/>
  <circle cx="22" cy="110" r="7" fill="none" stroke="#6a6f75" stroke-width="1.5"/>
  <path d="M27 115l4 4" fill="none" stroke="#6a6f75" stroke-width="1.5" stroke-linecap="round"/>

  <!-- 3. Source Control -->
  <rect x="8" y="140" width="32" height="32" rx="4" fill="transparent"/>
  <circle cx="24" cy="152" r="2" fill="#6a6f75"/>
  <path d="M20 160l4 4 4-4" fill="none" stroke="#6a6f75" stroke-width="1.5" stroke-linecap="round"/>

  <!-- 4. Chat / AI (new - highlighted) -->
  <rect x="8" y="184" width="32" height="32" rx="4" fill="transparent"/>
  <rect x="8" y="184" width="2" height="32" rx="1" fill="#a78bfa"/>
  <path d="M18 196h10" stroke="#9aa0a6" stroke-width="1.5" stroke-linecap="round"/>
  <path d="M16 204l8-8 8 8" fill="none" stroke="#9aa0a6" stroke-width="1.5" stroke-linecap="round" stroke-linejoin="round"/>

  <!-- 5. Extensions -->
  <rect x="8" y="228" width="32" height="32" rx="4" fill="transparent"/>
  <rect x="16" y="239" width="5" height="5" fill="none" stroke="#6a6f75" stroke-width="1.5"/>
  <rect x="23" y="239" width="5" height="5" fill="none" stroke="#6a6f75" stroke-width="1.5"/>
  <rect x="16" y="246" width="5" height="5" fill="none" stroke="#6a6f75" stroke-width="1.5"/>
  <rect x="23" y="246" width="5" height="5" fill="none" stroke="#6a6f75" stroke-width="1.5"/>

  <!-- Bottom: Account -->
  <rect x="8" y="740" width="32" height="32" rx="4" fill="transparent"/>
  <circle cx="24" cy="756" r="7" fill="none" stroke="#6a6f75" stroke-width="1.5"/>
  <circle cx="24" cy="754" r="2.5" fill="#6a6f75"/>
  <path d="M24 762c-4 0-7 3-7 5v1h14v-1c0-2-3-5-7-5z" fill="none" stroke="#6a6f75" stroke-width="1.5"/>

  <!-- Manage -->
  <rect x="8" y="776" width="32" height="32" rx="4" fill="transparent"/>
  <path d="M18 792l4 4 8-8" fill="none" stroke="#6a6f75" stroke-width="1.5" stroke-linecap="round" stroke-linejoin="round"/>

  <!-- ===== SIDEBAR (Explorer) ===== -->
  <rect x="48" y="38" width="220" height="796" fill="#21252b"/>
  <rect x="48" y="38" width="220" height="796" fill="none" stroke="#181a1f" stroke-width="1"/>

  <!-- Sidebar header -->
  <text x="68" y="60" font-family="-apple-system, BlinkMacSystemFont, 'Segoe UI', sans-serif" font-size="11" font-weight="600" fill="#9aa0a6" letter-spacing="0.5">EXPLORER</text>

  <!-- Project folder -->
  <text x="68" y="98" font-family="-apple-system, BlinkMacSystemFont, 'Segoe UI', sans-serif" font-size="12" font-weight="700" fill="#abb2bf">▼ 販売管理API</text>
  <text x="88" y="122" font-family="'SF Mono', 'Fira Code', 'Cascadia Code', monospace" font-size="11" fill="#6a737d">Java / React / PG</text>

  <!-- Folder items -->
  <text x="88" y="154" font-family="-apple-system, sans-serif" font-size="12" fill="#abb2bf">▶ src</text>
  <text x="88" y="178" font-family="-apple-system, sans-serif" font-size="12" fill="#abb2bf">▶ design</text>
  <text x="88" y="202" font-family="-apple-system, sans-serif" font-size="12" fill="#abb2bf">▶ tests</text>

  <!-- Current active file -->
  <rect x="56" y="218" width="204" height="24" fill="#30343c"/>
  <text x="88" y="234" font-family="'SF Mono', monospace" font-size="11" fill="#e5c07b">agent-plan.yaml</text>

  <!-- Resources -->
  <text x="68" y="272" font-family="-apple-system, sans-serif" font-size="11" font-weight="700" fill="#9aa0a6" letter-spacing="0.5">▼ RESOURCES</text>
  <rect x="64" y="288" width="192" height="28" rx="3" fill="#282c34"/>
  <text x="84" y="306" font-family="-apple-system, sans-serif" font-size="11" fill="#61afef">◉ 要件メモを解析中</text>

  <rect x="64" y="322" width="192" height="28" rx="3" fill="transparent"/>
  <text x="84" y="340" font-family="-apple-system, sans-serif" font-size="11" fill="#7a8490">○ 社内規約</text>

  <rect x="64" y="356" width="192" height="28" rx="3" fill="transparent"/>
  <text x="84" y="374" font-family="-apple-system, sans-serif" font-size="11" fill="#7a8490">○ 設計テンプレート</text>

  <rect x="64" y="390" width="192" height="28" rx="3" fill="transparent"/>
  <text x="84" y="408" font-family="-apple-system, sans-serif" font-size="11" fill="#7a8490">○ レビュー観点</text>

  <!-- Approvers -->
  <text x="68" y="460" font-family="-apple-system, sans-serif" font-size="11" font-weight="700" fill="#9aa0a6" letter-spacing="0.5">▼ APPROVERS</text>
  <circle cx="88" cy="490" r="14" fill="#007acc"/>
  <text x="80" y="495" font-family="-apple-system, sans-serif" font-size="11" font-weight="700" fill="#fff">PM</text>
  <circle cx="136" cy="490" r="14" fill="#0eaa6b"/>
  <text x="128" y="495" font-family="-apple-system, sans-serif" font-size="11" font-weight="700" fill="#fff">SE</text>

  <!-- ===== TAB BAR ===== -->
  <rect x="268" y="38" width="712" height="36" fill="#21252b"/>
  <line x1="268" y1="74" x2="980" y2="74" stroke="#181a1f" stroke-width="1"/>

  <!-- Active tab -->
  <rect x="280" y="38" width="150" height="36" fill="#282c34"/>
  <text x="296" y="60" font-family="-apple-system, sans-serif" font-size="12" fill="#abb2bf">agent-plan.yaml ✕</text>

  <!-- Inactive tabs -->
  <rect x="430" y="38" width="130" height="36" fill="#21252b"/>
  <text x="446" y="60" font-family="-apple-system, sans-serif" font-size="12" fill="#6a737d">main.go ✕</text>

  <rect x="560" y="38" width="130" height="36" fill="#21252b"/>
  <text x="576" y="60" font-family="-apple-system, sans-serif" font-size="12" fill="#6a737d">review.ts ✕</text>

  <!-- ===== EDITOR AREA ===== -->
  <rect x="268" y="74" width="712" height="760" fill="#282c34"/>

  <!-- Breadcrumb -->
  <rect x="284" y="82" width="200" height="22" rx="3" fill="#21252b"/>
  <text x="296" y="96" font-family="-apple-system, sans-serif" font-size="11" fill="#9aa0a6">販売管理API &gt; agent-plan.yaml</text>

  <!-- Editor content -->
  <text x="300" y="140" font-family="-apple-system, sans-serif" font-size="20" font-weight="800" fill="#e5c07b">AIエージェント実行計画</text>
  <text x="300" y="165" font-family="-apple-system, sans-serif" font-size="12" fill="#7f848e"># 計画を可視化し、人の確認・承認後に継続実行します。</text>

  <!-- ===== PIPELINE BAR ===== -->
  <rect x="290" y="192" width="668" height="72" rx="6" fill="#21252b" stroke="#3a3d41"/>

  <!-- PLAN - active -->
  <rect x="308" y="204" width="140" height="48" rx="6" fill="url(#accent)"/>
  <text x="343" y="234" font-family="'SF Mono', monospace" font-size="14" font-weight="800" fill="#fff" text-anchor="middle">▶ PLAN</text>

  <!-- Arrow -->
  <path d="M463 228h60" stroke="#4a5568" stroke-width="2" stroke-linecap="round"/>
  <path d="M518 221l8 7-8 7" fill="none" stroke="#4a5568" stroke-width="2" stroke-linecap="round" stroke-linejoin="round"/>

  <!-- BUILD -->
  <rect x="536" y="204" width="140" height="48" rx="6" fill="#282c34" stroke="#3a3d41"/>
  <text x="581" y="234" font-family="'SF Mono', monospace" font-size="14" font-weight="700" fill="#7f848e" text-anchor="middle">BUILD</text>

  <!-- Arrow -->
  <path d="M691 228h60" stroke="#4a5568" stroke-width="2" stroke-linecap="round"/>
  <path d="M746 221l8 7-8 7" fill="none" stroke="#4a5568" stroke-width="2" stroke-linecap="round" stroke-linejoin="round"/>

  <!-- TEST -->
  <rect x="764" y="204" width="140" height="48" rx="6" fill="#282c34" stroke="#3a3d41"/>
  <text x="809" y="234" font-family="'SF Mono', monospace" font-size="14" font-weight="700" fill="#7f848e" text-anchor="middle">TEST</text>

  <!-- ===== OUTPUT PANEL ===== -->
  <rect x="290" y="286" width="320" height="248" rx="6" fill="#21252b" stroke="#3a3d41"/>
  <text x="310" y="312" font-family="-apple-system, sans-serif" font-size="13" font-weight="700" fill="#abb2bf">生成アウトプット</text>

  <rect x="310" y="334" width="220" height="3" rx="1.5" fill="#4a5568"/>
  <rect x="310" y="348" width="280" height="3" rx="1.5" fill="#4a5568"/>
  <rect x="310" y="362" width="200" height="3" rx="1.5" fill="#4a5568"/>
  <rect x="310" y="376" width="260" height="3" rx="1.5" fill="#4a5568"/>
  <rect x="310" y="390" width="180" height="3" rx="1.5" fill="#4a5568"/>
  <rect x="310" y="412" width="120" height="3" rx="1.5" fill="#61afef"/>
  <rect x="310" y="426" width="170" height="3" rx="1.5" fill="#e5c07b"/>

  <rect x="310" y="450" width="96" height="22" rx="4" fill="#1e3a5f"/>
  <text x="326" y="465" font-family="-apple-system, sans-serif" font-size="10" font-weight="600" fill="#61afef">設計書 v1.3</text>

  <rect x="414" y="450" width="90" height="22" rx="4" fill="#14423a"/>
  <text x="430" y="465" font-family="-apple-system, sans-serif" font-size="10" font-weight="600" fill="#14c97e">PR ready</text>

  <rect x="310" y="484" width="280" height="34" rx="4" fill="#1e2227"/>
  <text x="322" y="505" font-family="'SF Mono', monospace" font-size="10" fill="#98c379">$ kaoooai build --plan agent-plan.yaml ✓</text>

  <!-- ===== REVIEW PANEL ===== -->
  <rect x="626" y="286" width="340" height="248" rx="6" fill="#21252b" stroke="#3a3d41"/>
  <text x="646" y="312" font-family="-apple-system, sans-serif" font-size="13" font-weight="700" fill="#abb2bf">対抗AIレビュー</text>

  <rect x="646" y="330" width="304" height="34" rx="4" fill="#282c34"/>
  <circle cx="664" cy="347" r="5" fill="#14c97e"/>
  <text x="676" y="352" font-family="-apple-system, sans-serif" font-size="11" fill="#abb2bf">設計整合性を確認</text>

  <rect x="646" y="372" width="304" height="34" rx="4" fill="#282c34"/>
  <circle cx="664" cy="389" r="5" fill="#14c97e"/>
  <text x="676" y="394" font-family="-apple-system, sans-serif" font-size="11" fill="#abb2bf">例外処理の不足を検出</text>

  <rect x="646" y="414" width="304" height="34" rx="4" fill="#282c34"/>
  <circle cx="664" cy="431" r="5" fill="#e5c07b"/>
  <text x="676" y="436" font-family="-apple-system, sans-serif" font-size="11" fill="#abb2bf">承認前に修正提案</text>

  <rect x="646" y="462" width="144" height="36" rx="6" fill="#0eaa6b"/>
  <text x="684" y="485" font-family="-apple-system, sans-serif" font-size="13" font-weight="700" fill="#fff" text-anchor="middle">人が承認</text>

  <rect x="800" y="462" width="152" height="36" rx="6" fill="#282c34" stroke="#3a3d41"/>
  <text x="822" y="475" font-family="'SF Mono', monospace" font-size="10" fill="#61afef">+3 files</text>
  <text x="910" y="475" font-family="'SF Mono', monospace" font-size="10" fill="#e06c75">-1 file</text>

  <!-- ===== CHAT PANEL (right side) ===== -->
  <rect x="980" y="38" width="300" height="796" fill="#1e1e2e"/>
  <rect x="980" y="38" width="300" height="796" fill="none" stroke="#302d41" stroke-width="1"/>
  <line x1="980" y1="38" x2="980" y2="834" stroke="#302d41" stroke-width="1.5"/>

  <!-- Chat header -->
  <rect x="980" y="38" width="300" height="40" fill="#181825"/>
  <text x="1000" y="62" font-family="-apple-system, sans-serif" font-size="12" font-weight="600" fill="#cdd6f4">CHAT</text>
  <text x="1048" y="62" font-family="-apple-system, sans-serif" font-size="11" fill="#a6adc8">Kaoooai Agent</text>

  <!-- Chat messages area -->
  <!-- AI message 1 -->
  <rect x="996" y="96" width="260" height="64" rx="8" fill="#313244"/>
  <text x="1008" y="114" font-family="-apple-system, sans-serif" font-size="10" font-weight="600" fill="#a78bfa">Kaoooai Agent</text>
  <text x="1008" y="130" font-family="-apple-system, sans-serif" font-size="12" fill="#cdd6f4">要件メモの解析が完了しました。</text>
  <text x="1008" y="148" font-family="-apple-system, sans-serif" font-size="12" fill="#cdd6f4">PLANフェーズを開始しますか？</text>

  <!-- AI message 2 -->
  <rect x="996" y="176" width="260" height="96" rx="8" fill="#313244"/>
  <text x="1008" y="194" font-family="-apple-system, sans-serif" font-size="10" font-weight="600" fill="#a78bfa">Kaoooai Agent</text>
  <text x="1008" y="210" font-family="-apple-system, sans-serif" font-size="12" fill="#cdd6f4">以下の計画を生成しました：</text>
  <rect x="1008" y="220" width="236" height="44" rx="4" fill="#1e1e2e"/>
  <text x="1018" y="236" font-family="'SF Mono', monospace" font-size="10" fill="#94e2d5">1. API設計 (8tasks)</text>
  <text x="1018" y="252" font-family="'SF Mono', monospace" font-size="10" fill="#94e2d5">2. DBスキーマ (3tasks)</text>

  <!-- User message -->
  <rect x="1008" y="290" width="248" height="36" rx="8" fill="#45475a"/>
  <text x="1020" y="312" font-family="-apple-system, sans-serif" font-size="10" font-weight="600" fill="#a6adc8">You</text>
  <text x="1056" y="312" font-family="-apple-system, sans-serif" font-size="12" fill="#cdd6f4">承認します。PLANを実行して</text>

  <!-- AI message 3 - streaming -->
  <rect x="996" y="342" width="260" height="112" rx="8" fill="#313244"/>
  <text x="1008" y="360" font-family="-apple-system, sans-serif" font-size="10" font-weight="600" fill="#a78bfa">Kaoooai Agent</text>
  <text x="1008" y="376" font-family="-apple-system, sans-serif" font-size="12" fill="#cdd6f4">PLANフェーズを実行中...</text>
  <rect x="1008" y="388" width="236" height="14" rx="2" fill="#1e1e2e"/>
  <rect x="1008" y="386" width="120" height="14" rx="2" fill="url(#accent)" opacity="0.6"/>
  <text x="1050" y="399" font-family="-apple-system, sans-serif" font-size="9" fill="#cdd6f4" text-anchor="middle">52%</text>
  <text x="1008" y="422" font-family="'SF Mono', monospace" font-size="10" fill="#a6adc8">✓ 要件分析完了</text>
  <text x="1008" y="438" font-family="'SF Mono', monospace" font-size="10" fill="#a6adc8">⏳ API設計書生成中...</text>

  <!-- AI message 4 - review suggestion -->
  <rect x="996" y="472" width="260" height="96" rx="8" fill="#313244" stroke="#f9e2af" stroke-width="1"/>
  <text x="1008" y="490" font-family="-apple-system, sans-serif" font-size="10" font-weight="600" fill="#f9e2af">⚠ Kaoooai Agent</text>
  <text x="1008" y="506" font-family="-apple-system, sans-serif" font-size="12" fill="#cdd6f4">対抗AIレビューで3件の指摘があり</text>
  <text x="1008" y="522" font-family="-apple-system, sans-serif" font-size="12" fill="#cdd6f4">ました。確認後に承認してください。</text>
  <rect x="1008" y="534" width="120" height="24" rx="4" fill="#f9e2af" opacity="0.2"/>
  <text x="1024" y="551" font-family="-apple-system, sans-serif" font-size="10" fill="#f9e2af">👆 指摘を確認</text>

  <!-- Separator between chat and prompt area -->
  <line x1="996" y1="648" x2="1256" y2="648" stroke="#302d41" stroke-width="1"/>

  <!-- Dropdown row: Agent + SpringBoot -->
  <!-- Agent dropdown -->
  <rect x="996" y="658" width="124" height="30" rx="6" fill="#313244" stroke="#45475a" stroke-width="1"/>
  <circle cx="1014" cy="673" r="4.5" fill="#a78bfa"/>
  <text x="1024" y="677" font-family="-apple-system, sans-serif" font-size="11" fill="#cdd6f4">Agent</text>
  <path d="M1112 668l3.5 3.5 3.5-3.5" fill="none" stroke="#6c7086" stroke-width="1.2" stroke-linecap="round" stroke-linejoin="round"/>

  <!-- SpringBoot dropdown -->
  <rect x="1128" y="658" width="132" height="30" rx="6" fill="#313244" stroke="#45475a" stroke-width="1"/>
  <circle cx="1146" cy="673" r="4.5" fill="#14c97e"/>
  <text x="1156" y="677" font-family="-apple-system, sans-serif" font-size="11" fill="#cdd6f4">SpringBoot</text>
  <path d="M1252 668l3.5 3.5 3.5-3.5" fill="none" stroke="#6c7086" stroke-width="1.2" stroke-linecap="round" stroke-linejoin="round"/>

  <!-- Chat input area -->
  <rect x="992" y="698" width="272" height="58" rx="8" fill="#313244" stroke="#45475a" stroke-width="1"/>
  <text x="1010" y="732" font-family="-apple-system, sans-serif" font-size="12" fill="#6c7086">Kaoooai Agent に質問する...</text>

  <!-- Send button -->
  <rect x="1224" y="712" width="32" height="30" rx="7" fill="url(#accent)"/>
  <polygon points="1233,720 1233,734 1244,727" fill="#fff"/>

  <!-- Chat footer info -->
  <text x="996" y="778" font-family="-apple-system, sans-serif" font-size="10" fill="#585b70">Ver: API 販売管理</text>
  <text x="1120" y="778" font-family="-apple-system, sans-serif" font-size="10" fill="#585b70">Context: agent-plan.yaml</text>

  <!-- ===== STATUS BAR ===== -->
  <rect x="48" y="810" width="1232" height="24" fill="#007acc"/>
  <rect x="48" y="810" width="1232" height="24" fill="none" stroke="#005a9e" stroke-width="1"/>

  <text x="64" y="826" font-family="-apple-system, sans-serif" font-size="11" fill="#fff">▶ PLAN (running)</text>

  <!-- Chat indicator on status bar -->
  <circle cx="830" cy="822" r="3.5" fill="#a78bfa"/>
  <text x="840" y="826" font-family="-apple-system, sans-serif" font-size="11" fill="#d0e5ff">Chat: 4 messages</text>

  <text x="1050" y="826" font-family="-apple-system, sans-serif" font-size="11" fill="#d0e5ff">非学習設定 / 監査ログON</text>
  <circle cx="1212" cy="822" r="3.5" fill="#14c97e"/>
  <text x="1220" y="826" font-family="-apple-system, sans-serif" font-size="11" fill="#d0e5ff">国内セキュア環境</text>
</svg>
